<svg width="36" height="47" viewBox="0 0 36 47" fill="none" xmlns="http://www.w3.org/2000/svg">
<path d="M34.8906 44.0625H6.25C5.47093 44.0625 4.72376 43.753 4.17287 43.2021C3.62199 42.6512 3.3125 41.9041 3.3125 41.125C3.3125 40.3459 3.62199 39.5988 4.17287 39.0479C4.72376 38.497 5.47093 38.1875 6.25 38.1875H34.8906C35.0854 38.1875 35.2722 38.2649 35.4099 38.4026C35.5476 38.5403 35.625 38.7271 35.625 38.9219V43.3281C35.625 43.5229 35.5476 43.7097 35.4099 43.8474C35.2722 43.9851 35.0854 44.0625 34.8906 44.0625ZM6.25 39.6562C5.86046 39.6562 5.48688 39.811 5.21144 40.0864C4.93599 40.3619 4.78125 40.7355 4.78125 41.125C4.78125 41.5145 4.93599 41.8881 5.21144 42.1636C5.48688 42.439 5.86046 42.5938 6.25 42.5938H34.1562V39.6562H6.25ZM25.3438 22.7656H10.6562C10.4615 22.7656 10.2747 22.6883 10.137 22.5505C9.99925 22.4128 9.92188 22.226 9.92188 22.0312V14.5039C8.42326 14.1473 7.12467 13.2163 6.30579 11.9115C5.48691 10.6067 5.21327 9.03253 5.5438 7.52795C5.87433 6.02336 6.78258 4.70879 8.07294 3.86736C9.36329 3.02593 10.9325 2.72497 12.4426 3.0293C15.0396 -1.00977 20.9586 -1.00977 23.5574 3.0293C25.0675 2.72497 26.6367 3.02593 27.9271 3.86736C29.2174 4.70879 30.1257 6.02336 30.4562 7.52795C30.7867 9.03253 30.5131 10.6067 29.6942 11.9115C28.8753 13.2163 27.5767 14.1473 26.0781 14.5039V22.0312C26.0781 22.226 26.0008 22.4128 25.863 22.5505C25.7253 22.6883 25.5385 22.7656 25.3438 22.7656ZM11.3906 21.2969H24.6094V13.8999C24.6094 13.7231 24.6731 13.5522 24.789 13.4187C24.9048 13.2851 25.065 13.1978 25.24 13.1729C25.838 13.0871 26.4119 12.8793 26.9262 12.5624C27.4404 12.2455 27.8841 11.8262 28.2295 11.3306C28.5748 10.835 28.8147 10.2737 28.934 9.68156C29.0533 9.08939 29.0496 8.479 28.923 7.88833C28.7965 7.29766 28.5499 6.73931 28.1985 6.24797C27.8471 5.75662 27.3984 5.34279 26.8803 5.03216C26.3622 4.72154 25.7858 4.52076 25.1868 4.4423C24.5879 4.36384 23.9792 4.40937 23.3986 4.57607C23.2361 4.62199 23.0628 4.61055 22.9079 4.54367C22.7529 4.47679 22.6257 4.35857 22.5476 4.20889C22.1112 3.38088 21.457 2.68774 20.6556 2.20423C19.8542 1.72072 18.936 1.46518 18 1.46518C17.064 1.46518 16.1458 1.72072 15.3444 2.20423C14.543 2.68774 13.8888 3.38088 13.4524 4.20889C13.3743 4.35857 13.2471 4.47679 13.0921 4.54367C12.9372 4.61055 12.7639 4.62199 12.6014 4.57607C12.0208 4.40937 11.4121 4.36384 10.8132 4.4423C10.2142 4.52076 9.63778 4.72154 9.11969 5.03216C8.6016 5.34279 8.15292 5.75662 7.80151 6.24797C7.4501 6.73931 7.20347 7.29766 7.07695 7.88833C6.95043 8.479 6.94671 9.08939 7.06603 9.68156C7.18535 10.2737 7.42515 10.835 7.77055 11.3306C8.11594 11.8262 8.55956 12.2455 9.07382 12.5624C9.58809 12.8793 10.162 13.0871 10.76 13.1729C10.935 13.1978 11.0952 13.2851 11.211 13.4187C11.3269 13.5522 11.3906 13.7231 11.3906 13.8999V21.2969Z" fill="black"/>
<path d="M26.8125 26.4375H9.1875C8.99273 26.4375 8.80594 26.3601 8.66822 26.2224C8.5305 26.0847 8.45312 25.8979 8.45312 25.7031V22.0312C8.45312 21.8365 8.5305 21.6497 8.66822 21.512C8.80594 21.3742 8.99273 21.2969 9.1875 21.2969H26.8125C27.0073 21.2969 27.1941 21.3742 27.3318 21.512C27.4695 21.6497 27.5469 21.8365 27.5469 22.0312V25.7031C27.5469 25.8979 27.4695 26.0847 27.3318 26.2224C27.1941 26.3601 27.0073 26.4375 26.8125 26.4375ZM9.92188 24.9688H26.0781V22.7656H9.92188V24.9688ZM18 19.0938C17.8052 19.0938 17.6184 19.0164 17.4807 18.8787C17.343 18.7409 17.2656 18.5541 17.2656 18.3594V13.9531C17.2656 13.7584 17.343 13.5716 17.4807 13.4338C17.6184 13.2961 17.8052 13.2188 18 13.2188C18.1948 13.2188 18.3816 13.2961 18.5193 13.4338C18.657 13.5716 18.7344 13.7584 18.7344 13.9531V18.3594C18.7344 18.5541 18.657 18.7409 18.5193 18.8787C18.3816 19.0164 18.1948 19.0938 18 19.0938ZM14.3281 19.0938C14.1334 19.0938 13.9466 19.0164 13.8088 18.8787C13.6711 18.7409 13.5938 18.5541 13.5938 18.3594V13.9531C13.5938 13.7584 13.6711 13.5716 13.8088 13.4338C13.9466 13.2961 14.1334 13.2188 14.3281 13.2188C14.5229 13.2188 14.7097 13.2961 14.8474 13.4338C14.9851 13.5716 15.0625 13.7584 15.0625 13.9531V18.3594C15.0625 18.5541 14.9851 18.7409 14.8474 18.8787C14.7097 19.0164 14.5229 19.0938 14.3281 19.0938ZM21.6719 19.0938C21.4771 19.0938 21.2903 19.0164 21.1526 18.8787C21.0149 18.7409 20.9375 18.5541 20.9375 18.3594V13.9531C20.9375 13.7584 21.0149 13.5716 21.1526 13.4338C21.2903 13.2961 21.4771 13.2188 21.6719 13.2188C21.8666 13.2188 22.0534 13.2961 22.1912 13.4338C22.3289 13.5716 22.4062 13.7584 22.4062 13.9531V18.3594C22.4062 18.5541 22.3289 18.7409 22.1912 18.8787C22.0534 19.0164 21.8666 19.0938 21.6719 19.0938ZM25.3438 30.1094H9.92188C9.72711 30.1094 9.54031 30.032 9.40259 29.8943C9.26487 29.7566 9.1875 29.5698 9.1875 29.375C9.1875 29.1802 9.26487 28.9934 9.40259 28.8557C9.54031 28.718 9.72711 28.6406 9.92188 28.6406H25.3438C25.5385 28.6406 25.7253 28.718 25.863 28.8557C26.0008 28.9934 26.0781 29.1802 26.0781 29.375C26.0781 29.5698 26.0008 29.7566 25.863 29.8943C25.7253 30.032 25.5385 30.1094 25.3438 30.1094ZM22.4062 33.0469H13.5938C13.399 33.0469 13.2122 32.9695 13.0745 32.8318C12.9367 32.6941 12.8594 32.5073 12.8594 32.3125C12.8594 32.1177 12.9367 31.9309 13.0745 31.7932C13.2122 31.6555 13.399 31.5781 13.5938 31.5781H22.4062C22.601 31.5781 22.7878 31.6555 22.9255 31.7932C23.0633 31.9309 23.1406 32.1177 23.1406 32.3125C23.1406 32.5073 23.0633 32.6941 22.9255 32.8318C22.7878 32.9695 22.601 33.0469 22.4062 33.0469Z" fill="black"/>
<path d="M34.8906 41.125H1.10938C0.914607 41.125 0.727816 41.0476 0.590094 40.9099C0.452372 40.7722 0.375 40.5854 0.375 40.3906V10.2812C0.376701 8.72363 0.996219 7.23028 2.09763 6.12888C3.19903 5.02747 4.69238 4.40795 6.25 4.40625H34.8906C35.0854 4.40625 35.2722 4.48362 35.4099 4.62134C35.5476 4.75907 35.625 4.94586 35.625 5.14062V33.0469C35.625 33.2416 35.5476 33.4284 35.4099 33.5662C35.2722 33.7039 35.0854 33.7812 34.8906 33.7812C34.6959 33.7812 34.5091 33.7039 34.3713 33.5662C34.2336 33.4284 34.1562 33.2416 34.1562 33.0469V5.875H6.25C5.08176 5.87621 3.96172 6.34083 3.13565 7.1669C2.30958 7.99297 1.84496 9.11301 1.84375 10.2812V39.6562H34.1562V35.9844C34.1562 35.7896 34.2336 35.6028 34.3713 35.4651C34.5091 35.3274 34.6959 35.25 34.8906 35.25C35.0854 35.25 35.2722 35.3274 35.4099 35.4651C35.5476 35.6028 35.625 35.7896 35.625 35.9844V40.3906C35.625 40.5854 35.5476 40.7722 35.4099 40.9099C35.2722 41.0476 35.0854 41.125 34.8906 41.125Z" fill="black"/>
<path d="M34.8906 47H9.92188C9.72711 47 9.54031 46.9226 9.40259 46.7849C9.26487 46.6472 9.1875 46.4604 9.1875 46.2656C9.1875 46.0709 9.26487 45.8841 9.40259 45.7463C9.54031 45.6086 9.72711 45.5312 9.92188 45.5312H34.1562V36.7188H6.25C5.08139 36.7188 3.96064 37.183 3.13431 38.0093C2.30798 38.8356 1.84375 39.9564 1.84375 41.125C1.84375 42.2936 2.30798 43.4144 3.13431 44.2407C3.96064 45.067 5.08139 45.5312 6.25 45.5312H6.98438C7.17914 45.5312 7.36593 45.6086 7.50366 45.7463C7.64138 45.8841 7.71875 46.0709 7.71875 46.2656C7.71875 46.4604 7.64138 46.6472 7.50366 46.7849C7.36593 46.9226 7.17914 47 6.98438 47H6.25C4.69185 47 3.19752 46.381 2.09575 45.2793C0.993971 44.1775 0.375 42.6831 0.375 41.125C0.375 39.5669 0.993971 38.0725 2.09575 36.9707C3.19752 35.869 4.69185 35.25 6.25 35.25H34.8906C35.0854 35.25 35.2722 35.3274 35.4099 35.4651C35.5476 35.6028 35.625 35.7896 35.625 35.9844V46.2656C35.625 46.4604 35.5476 46.6472 35.4099 46.7849C35.2722 46.9226 35.0854 47 34.8906 47Z" fill="black"/>
<path d="M34.8906 44.0625H6.25C5.47093 44.0625 4.72376 43.753 4.17287 43.2021C3.62199 42.6512 3.3125 41.9041 3.3125 41.125C3.3125 40.3459 3.62199 39.5988 4.17287 39.0479C4.72376 38.497 5.47093 38.1875 6.25 38.1875H34.8906C35.0854 38.1875 35.2722 38.2649 35.4099 38.4026C35.5476 38.5403 35.625 38.7271 35.625 38.9219V43.3281C35.625 43.5229 35.5476 43.7097 35.4099 43.8474C35.2722 43.9851 35.0854 44.0625 34.8906 44.0625ZM6.25 39.6562C5.86046 39.6562 5.48688 39.811 5.21144 40.0864C4.93599 40.3619 4.78125 40.7355 4.78125 41.125C4.78125 41.5145 4.93599 41.8881 5.21144 42.1636C5.48688 42.439 5.86046 42.5938 6.25 42.5938H34.1562V39.6562H6.25Z" fill="black"/>
<path d="M25.3423 22.7656H10.6548C10.4601 22.7656 10.2733 22.6883 10.1355 22.5505C9.99781 22.4128 9.92044 22.226 9.92044 22.0312V14.5039C8.42183 14.1473 7.12324 13.2163 6.30436 11.9115C5.48548 10.6067 5.21184 9.03253 5.54237 7.52795C5.87289 6.02336 6.78115 4.70879 8.0715 3.86736C9.36186 3.02593 10.9311 2.72497 12.4412 3.0293C15.0381 -1.00977 20.9572 -1.00977 23.556 3.0293C25.0661 2.72497 26.6353 3.02593 27.9256 3.86736C29.216 4.70879 30.1242 6.02336 30.4548 7.52795C30.7853 9.03253 30.5117 10.6067 29.6928 11.9115C28.8739 13.2163 27.5753 14.1473 26.0767 14.5039V22.0312C26.0767 22.226 25.9993 22.4128 25.8616 22.5505C25.7239 22.6883 25.5371 22.7656 25.3423 22.7656ZM11.3892 21.2969H24.6079V13.8999C24.6079 13.7231 24.6717 13.5522 24.7876 13.4187C24.9034 13.2851 25.0636 13.1978 25.2386 13.1729C25.8365 13.0871 26.4105 12.8793 26.9247 12.5624C27.439 12.2455 27.8826 11.8262 28.228 11.3306C28.5734 10.835 28.8132 10.2737 28.9325 9.68156C29.0519 9.08939 29.0481 8.479 28.9216 7.88833C28.7951 7.29766 28.5485 6.73931 28.1971 6.24797C27.8456 5.75662 27.397 5.34279 26.8789 5.03216C26.3608 4.72154 25.7844 4.52076 25.1854 4.4423C24.5864 4.36384 23.9778 4.40937 23.3971 4.57607C23.2347 4.62199 23.0614 4.61055 22.9064 4.54367C22.7514 4.47679 22.6242 4.35857 22.5462 4.20889C22.1098 3.38088 21.4556 2.68774 20.6542 2.20423C19.8528 1.72072 18.9345 1.46518 17.9986 1.46518C17.0626 1.46518 16.1444 1.72072 15.343 2.20423C14.5416 2.68774 13.8874 3.38088 13.451 4.20889C13.3729 4.35857 13.2457 4.47679 13.0907 4.54367C12.9357 4.61055 12.7624 4.62199 12.6 4.57607C12.0194 4.40937 11.4107 4.36384 10.8117 4.4423C10.2128 4.52076 9.63635 4.72154 9.11826 5.03216C8.60017 5.34279 8.15149 5.75662 7.80008 6.24797C7.44867 6.73931 7.20204 7.29766 7.07552 7.88833C6.949 8.479 6.94528 9.08939 7.0646 9.68156C7.18391 10.2737 7.42372 10.835 7.76912 11.3306C8.11451 11.8262 8.55812 12.2455 9.07239 12.5624C9.58666 12.8793 10.1606 13.0871 10.7585 13.1729C10.9336 13.1978 11.0937 13.2851 11.2096 13.4187C11.3254 13.5522 11.3892 13.7231 11.3892 13.8999V21.2969Z" fill="black"/>
<path d="M26.8125 26.4375H9.1875C8.99273 26.4375 8.80594 26.3601 8.66822 26.2224C8.5305 26.0847 8.45312 25.8979 8.45312 25.7031V22.0312C8.45312 21.8365 8.5305 21.6497 8.66822 21.512C8.80594 21.3742 8.99273 21.2969 9.1875 21.2969H26.8125C27.0073 21.2969 27.1941 21.3742 27.3318 21.512C27.4695 21.6497 27.5469 21.8365 27.5469 22.0312V25.7031C27.5469 25.8979 27.4695 26.0847 27.3318 26.2224C27.1941 26.3601 27.0073 26.4375 26.8125 26.4375ZM9.92188 24.9688H26.0781V22.7656H9.92188V24.9688ZM18 19.0938C17.8052 19.0938 17.6184 19.0164 17.4807 18.8787C17.343 18.7409 17.2656 18.5541 17.2656 18.3594V13.9531C17.2656 13.7584 17.343 13.5716 17.4807 13.4338C17.6184 13.2961 17.8052 13.2188 18 13.2188C18.1948 13.2188 18.3816 13.2961 18.5193 13.4338C18.657 13.5716 18.7344 13.7584 18.7344 13.9531V18.3594C18.7344 18.5541 18.657 18.7409 18.5193 18.8787C18.3816 19.0164 18.1948 19.0938 18 19.0938ZM14.3281 19.0938C14.1334 19.0938 13.9466 19.0164 13.8088 18.8787C13.6711 18.7409 13.5938 18.5541 13.5938 18.3594V13.9531C13.5938 13.7584 13.6711 13.5716 13.8088 13.4338C13.9466 13.2961 14.1334 13.2188 14.3281 13.2188C14.5229 13.2188 14.7097 13.2961 14.8474 13.4338C14.9851 13.5716 15.0625 13.7584 15.0625 13.9531V18.3594C15.0625 18.5541 14.9851 18.7409 14.8474 18.8787C14.7097 19.0164 14.5229 19.0938 14.3281 19.0938ZM21.6719 19.0938C21.4771 19.0938 21.2903 19.0164 21.1526 18.8787C21.0149 18.7409 20.9375 18.5541 20.9375 18.3594V13.9531C20.9375 13.7584 21.0149 13.5716 21.1526 13.4338C21.2903 13.2961 21.4771 13.2188 21.6719 13.2188C21.8666 13.2188 22.0534 13.2961 22.1912 13.4338C22.3289 13.5716 22.4062 13.7584 22.4062 13.9531V18.3594C22.4062 18.5541 22.3289 18.7409 22.1912 18.8787C22.0534 19.0164 21.8666 19.0938 21.6719 19.0938ZM25.3438 30.1094H9.92188C9.72711 30.1094 9.54031 30.032 9.40259 29.8943C9.26487 29.7566 9.1875 29.5698 9.1875 29.375C9.1875 29.1802 9.26487 28.9934 9.40259 28.8557C9.54031 28.718 9.72711 28.6406 9.92188 28.6406H25.3438C25.5385 28.6406 25.7253 28.718 25.863 28.8557C26.0008 28.9934 26.0781 29.1802 26.0781 29.375C26.0781 29.5698 26.0008 29.7566 25.863 29.8943C25.7253 30.032 25.5385 30.1094 25.3438 30.1094ZM22.4062 33.0469H13.5938C13.399 33.0469 13.2122 32.9695 13.0745 32.8318C12.9367 32.6941 12.8594 32.5073 12.8594 32.3125C12.8594 32.1177 12.9367 31.9309 13.0745 31.7932C13.2122 31.6555 13.399 31.5781 13.5938 31.5781H22.4062C22.601 31.5781 22.7878 31.6555 22.9255 31.7932C23.0633 31.9309 23.1406 32.1177 23.1406 32.3125C23.1406 32.5073 23.0633 32.6941 22.9255 32.8318C22.7878 32.9695 22.601 33.0469 22.4062 33.0469Z" fill="black"/>
</svg>
