<svg width="15" height="11" viewBox="0 0 15 11" fill="none" xmlns="http://www.w3.org/2000/svg">
<g id="inners">
<path id="Vector" d="M8.04485 7.49343L3.64299 3.43677C3.33925 3.15685 2.84679 3.15685 2.54305 3.43677L1.43878 4.45444C1.13504 4.73436 1.13504 5.1882 1.43878 5.46812L5.84064 9.52477C6.14438 9.80469 6.63685 9.80469 6.94059 9.52477L8.04485 8.50711C8.3486 8.22719 8.3486 7.77335 8.04485 7.49343Z" fill="white"/>
<path id="Vector_2" d="M11.3567 1.44831L4.76799 7.52026C4.46425 7.80018 4.46425 8.25402 4.76799 8.53394L5.87226 9.55161C6.176 9.83153 6.66846 9.83153 6.9722 9.55161L13.5609 3.47965C13.8646 3.19973 13.8646 2.74589 13.5609 2.46597L12.4566 1.44831C12.1529 1.16838 11.6604 1.16839 11.3567 1.44831Z" fill="white"/>
</g>
</svg>
