<svg width="12" height="11" viewBox="0 0 12 11" fill="none" xmlns="http://www.w3.org/2000/svg">
<path d="M4.7521 0.219971C4.65616 0.219971 4.56021 0.3642 4.60787 0.460144C4.60787 0.556088 4.70382 0.652032 4.84805 0.604373C4.8957 0.604373 4.94399 0.652032 4.94399 0.69969C4.94238 0.724669 4.93178 0.748219 4.91414 0.765976C4.89649 0.783733 4.87301 0.794492 4.84805 0.796261H4.7521C4.51193 0.843919 4.31941 1.03581 4.31941 1.27598C4.31941 1.51615 4.56021 1.7557 4.79976 1.7557H4.84805C4.8957 1.7557 4.94399 1.80399 4.94399 1.85227C4.94224 1.87714 4.93157 1.90054 4.91394 1.91817C4.89631 1.93579 4.87291 1.94646 4.84805 1.94822C4.7521 1.89993 4.60787 1.99587 4.60787 2.1401C4.60787 2.23605 4.7521 2.33199 4.84805 2.33199C4.97517 2.33166 5.097 2.28101 5.18689 2.19112C5.27679 2.10122 5.32744 1.9794 5.32777 1.85227C5.32777 1.6121 5.13588 1.41958 4.8957 1.37192H4.79976C4.77489 1.37017 4.75149 1.3595 4.73387 1.34187C4.71624 1.32425 4.70557 1.30085 4.70382 1.27598C4.70382 1.2277 4.7521 1.18004 4.79976 1.18004H4.84805C5.08822 1.18004 5.32777 0.939864 5.32777 0.69969C5.32744 0.572563 5.27679 0.450736 5.18689 0.360843C5.097 0.27095 4.97517 0.220302 4.84805 0.219971H4.7521ZM5.85577 0.219971C5.75983 0.219971 5.66388 0.3642 5.71154 0.460144C5.71154 0.556088 5.85577 0.652032 5.95171 0.604373C6 0.604373 6.04829 0.652032 6.04829 0.69969C6.04829 0.747976 5.95171 0.796261 5.90406 0.796261H5.85577C5.61622 0.843919 5.42371 1.03581 5.42371 1.27598C5.42371 1.51615 5.66388 1.7557 5.90406 1.7557C5.95171 1.7557 6 1.80399 6 1.85227C5.99825 1.87714 5.98758 1.90054 5.96995 1.91817C5.95232 1.93579 5.92892 1.94646 5.90406 1.94822C5.80811 1.89993 5.66388 1.99587 5.66388 2.1401C5.66388 2.23605 5.80811 2.33199 5.90406 2.33199C6.19251 2.33199 6.38378 2.1401 6.38378 1.85227C6.38378 1.6121 6.19189 1.41958 5.95171 1.37192H5.85577C5.8309 1.37017 5.8075 1.3595 5.78988 1.34187C5.77225 1.32425 5.76158 1.30085 5.75983 1.27598C5.75983 1.2277 5.80811 1.18004 5.85577 1.18004C6.14423 1.18004 6.33612 0.939864 6.33612 0.69969C6.33578 0.572454 6.28505 0.450533 6.19502 0.360622C6.10499 0.270711 5.98301 0.220136 5.85577 0.219971ZM7.05601 0.219971C6.96007 0.219971 6.86412 0.3642 6.91178 0.460144C6.96007 0.556088 7.05601 0.652032 7.15195 0.604373C7.20024 0.604373 7.2479 0.652032 7.2479 0.69969C7.24629 0.724669 7.23568 0.748219 7.21804 0.765976C7.2004 0.783733 7.17692 0.794492 7.15195 0.796261H7.1043C6.86412 0.843919 6.67161 1.03581 6.67161 1.27598C6.67161 1.51615 6.91178 1.7557 7.15195 1.7557H7.20024C7.2479 1.7557 7.29618 1.80399 7.29618 1.85227C7.29443 1.87714 7.28376 1.90054 7.26613 1.91817C7.24851 1.93579 7.22511 1.94646 7.20024 1.94822C7.05601 1.89993 6.96007 1.99587 6.96007 2.1401C6.96007 2.23605 7.10429 2.33199 7.20024 2.33199C7.32737 2.33166 7.44919 2.28101 7.53909 2.19112C7.62898 2.10122 7.67963 1.9794 7.67996 1.85227C7.67996 1.6121 7.48807 1.41958 7.2479 1.37192H7.15195C7.12709 1.37017 7.10369 1.3595 7.08606 1.34187C7.06843 1.32425 7.05776 1.30085 7.05601 1.27598C6.96007 1.2277 7.05601 1.18004 7.05601 1.18004C7.29618 1.18004 7.53573 0.939864 7.53573 0.69969C7.5354 0.572563 7.48475 0.450736 7.39486 0.360843C7.30496 0.27095 7.18314 0.220302 7.05601 0.219971ZM4.7521 2.90828C4.65616 2.90828 4.60787 3.00423 4.60787 3.10017V3.48394H2.49585C1.96785 3.48394 1.58407 3.72412 1.39219 4.06023C1.19967 4.34807 1.15201 4.73184 1.15201 5.06796C1.15552 5.11769 1.17686 5.16449 1.21211 5.19975C1.24737 5.235 1.29417 5.25634 1.3439 5.25985H10.6561C10.7058 5.25634 10.7526 5.235 10.7879 5.19975C10.8231 5.16449 10.8445 5.11769 10.848 5.06796C10.848 4.7795 10.848 4.39572 10.7038 4.06023C10.5595 3.72412 10.224 3.48394 9.69603 3.48394H7.34447V3.10017C7.34095 3.05033 7.31952 3.00345 7.28413 2.96819C7.24875 2.93292 7.2018 2.91164 7.15195 2.90828H4.7521ZM0.768237 5.50002C0.667008 5.49876 0.566551 5.51776 0.47278 5.55592C0.37901 5.59408 0.293824 5.65062 0.222239 5.7222C0.150654 5.79379 0.094118 5.87897 0.0559606 5.97274C0.0178032 6.06651 -0.00120383 6.16697 5.90445e-05 6.2682C-0.00111953 6.36938 0.0179497 6.46976 0.0561448 6.56346C0.0943399 6.65716 0.150889 6.74227 0.222466 6.81379C0.294042 6.88531 0.3792 6.94179 0.472928 6.9799C0.566656 7.01802 0.667062 7.03701 0.768237 7.03575C0.912466 7.03575 1.05607 6.98809 1.15201 6.93981V9.24434C1.15201 10.1078 1.82425 10.7801 2.73603 10.7801H9.26397C9.68296 10.7765 10.0838 10.6084 10.3801 10.3121C10.6763 10.0159 10.8444 9.61505 10.848 9.19605V6.93981C10.9439 6.98809 11.0882 7.03575 11.2318 7.03575C11.3329 7.03701 11.4333 7.01802 11.5271 6.9799C11.6208 6.94179 11.706 6.88531 11.7775 6.81379C11.8491 6.74227 11.9057 6.65716 11.9439 6.56346C11.982 6.46976 12.0011 6.36938 11.9999 6.2682C12.0012 6.16697 11.9822 6.06651 11.944 5.97274C11.9059 5.87897 11.8493 5.79379 11.7778 5.7222C11.7062 5.65062 11.621 5.59408 11.5272 5.55592C11.4334 5.51776 11.333 5.49876 11.2318 5.50002C10.9922 5.50002 10.752 5.59596 10.6078 5.78848H1.3439C1.19967 5.64425 0.960125 5.50002 0.768237 5.50002Z" fill="#667487"/>
</svg>
