<svg width="70" height="47" viewBox="0 0 70 47" fill="none" xmlns="http://www.w3.org/2000/svg">
<path d="M37.5903 23.1808C38.0427 23.1808 38.4095 22.8141 38.4095 22.3617C38.4095 21.9093 38.0427 21.5426 37.5903 21.5426C37.138 21.5426 36.7712 21.9093 36.7712 22.3617C36.7712 22.8141 37.138 23.1808 37.5903 23.1808Z" fill="#B6805A"/>
<path d="M31.3204 23.5079C31.3002 23.5079 31.2806 23.5079 31.2609 23.5079C28.2228 23.3155 25.2146 22.7931 22.2894 21.9499C22.1828 21.9192 22.0833 21.8676 21.9967 21.7983C21.9101 21.7289 21.838 21.6431 21.7847 21.5458C21.7314 21.4485 21.6978 21.3416 21.686 21.2313C21.6741 21.1209 21.6842 21.0093 21.7156 20.9029C21.7471 20.7965 21.7993 20.6973 21.8692 20.6112C21.9391 20.525 22.0254 20.4535 22.123 20.4008C22.2207 20.3481 22.3278 20.3152 22.4382 20.3041C22.5486 20.2929 22.6601 20.3037 22.7663 20.3358C25.5739 21.1444 28.4612 21.6452 31.3771 21.8293C31.6003 21.8367 31.8114 21.9326 31.9639 22.0956C32.1165 22.2587 32.198 22.4757 32.1906 22.6989C32.1831 22.9221 32.0873 23.1332 31.9242 23.2858C31.7612 23.4383 31.5442 23.5198 31.321 23.5124L31.3204 23.5079Z" fill="#B6805A"/>
<path d="M58.5298 17.4818V11.8103C58.5287 11.3474 58.4755 10.8862 58.371 10.4352C58.371 10.4246 58.3677 10.4145 58.3654 10.4044C58.3632 10.3943 58.3615 10.3808 58.3592 10.369C56.8467 2.08761 40.6098 0 34.6517 0C23.7626 0 14.2631 3.59734 11.5517 8.75212C11.0434 9.69285 10.7737 10.7439 10.7662 11.8131V17.4818C3.82344 20.715 0 25.1119 0 29.902C0 39.49 15.2203 47 34.65 47C54.0797 47 69.2938 39.49 69.2938 29.902C69.2955 25.1096 65.472 20.715 58.5298 17.4818ZM52.5037 36.429C52.5037 36.9329 52.3543 37.4255 52.0743 37.8445C51.7944 38.2634 51.3965 38.59 50.9309 38.7828C50.4653 38.9756 49.9531 39.026 49.4589 38.9277C48.9646 38.8293 48.5107 38.5866 48.1544 38.2303C47.7981 37.8739 47.5555 37.4199 47.4573 36.9257C47.3591 36.4315 47.4096 35.9192 47.6025 35.4537C47.7954 34.9882 48.1221 34.5903 48.5411 34.3104C48.9601 34.0306 49.4527 33.8812 49.9566 33.8814C50.632 33.8822 51.2794 34.151 51.7569 34.6286C52.2344 35.1062 52.503 35.7537 52.5037 36.429ZM52.6159 33.1442C52.7891 32.5659 53.1352 32.0545 53.6077 31.6789C54.0803 31.3034 54.6565 31.0815 55.2589 31.0434C55.8614 31.0052 56.461 31.1525 56.9772 31.4655C57.4933 31.7785 57.9012 32.242 58.1459 32.7938C58.3906 33.3456 58.4604 33.9592 58.3459 34.5518C58.2313 35.1445 57.938 35.6878 57.5053 36.1087C57.0726 36.5296 56.5213 36.8078 55.9257 36.9059C55.3301 37.004 54.7187 36.9172 54.1739 36.6573C54.1779 36.5811 54.1852 36.5059 54.1852 36.429C54.1851 35.7991 54.0442 35.1772 53.7726 34.6088C53.5011 34.0405 53.1059 33.54 52.6159 33.1442ZM56.8276 27.1411C56.7598 27.9411 56.5021 28.7133 56.0758 29.3937C55.0324 29.2419 53.9686 29.4541 53.0632 29.9943C52.1578 30.5346 51.4659 31.3701 51.104 32.3604C50.5475 32.2011 49.9641 32.1582 49.3903 32.2342C48.8165 32.3103 48.2645 32.5036 47.7687 32.8023C47.2729 33.101 46.8439 33.4986 46.5085 33.9704C46.173 34.4421 45.9383 34.9779 45.819 35.5443C45.1563 35.7242 44.4796 35.8869 43.7892 36.0324C43.6865 35.864 43.5755 35.6924 43.4526 35.5218C42.8717 34.7564 42.4501 33.8823 42.2127 32.9512C42.0723 32.3638 41.9685 31.7684 41.9019 31.1682C48.8587 30.0921 54.2592 27.5316 56.8456 24.2894V27.0216C56.8375 27.0612 56.8322 27.1013 56.8299 27.1417L56.8276 27.1411ZM12.451 11.8103C12.4562 11.1875 12.5843 10.5719 12.828 9.99873L32.2398 10.6159H32.2667C32.4288 10.6159 32.5875 10.5691 32.7236 10.4811C32.8598 10.3932 32.9676 10.2677 33.0342 10.1199L36.8071 1.74313C36.9957 1.75099 37.1836 1.76108 37.3721 1.77174C37.73 1.79138 38.0874 1.8127 38.4437 1.84131C38.5503 1.84973 38.6563 1.86207 38.7629 1.87161L35.3081 9.5443C35.2514 9.67041 35.2267 9.80854 35.2361 9.94648C35.2455 10.0844 35.2888 10.2179 35.362 10.3351C35.4353 10.4524 35.5363 10.5498 35.6562 10.6187C35.776 10.6876 35.911 10.726 36.0492 10.7303L56.8237 11.3839C56.8372 11.5253 56.8489 11.6644 56.8489 11.8109V13.2297L38.7377 12.6614C37.2801 12.4477 35.8126 12.308 34.3408 12.2429C32.2162 12.1868 30.3575 12.235 28.7187 12.3439L12.4488 11.8339L12.451 11.8103ZM47.3383 16.4961C46.8721 15.6331 46.1414 14.9425 45.2535 14.5257L55.7594 14.8769C54.3226 16.8792 51.5191 18.66 47.7737 19.9374C47.9856 18.7728 47.8336 17.5712 47.3383 16.4961ZM47.1038 21.9184C51.6016 20.5759 54.9689 18.5977 56.8467 16.2341V19.1514C56.8383 19.1896 56.8327 20.1753 56.8299 20.2174C56.5432 24.3438 50.4386 28.0937 41.8856 29.4694C41.9121 28.7825 42.1623 28.1231 42.5981 27.5916C43.586 26.5607 44.4466 25.4149 45.1615 24.1789C45.3401 23.9071 45.5625 23.6667 45.8196 23.4675C46.3474 23.0426 46.7841 22.5158 47.1038 21.9184ZM17.0111 17.8919C14.8623 16.5965 13.4076 15.0867 12.791 13.5282L20.5579 13.7526C20.0205 13.9327 19.6883 14.0746 19.5705 14.1285C18.2369 14.6172 17.4627 16.2144 17.0111 17.8919ZM16.6459 19.6261C16.5696 20.1097 16.5146 20.5692 16.4775 20.9725C16.4469 21.2912 16.4065 21.6091 16.3564 21.9263C16.1572 23.1718 16.0169 24.2669 15.9272 25.2734C14.2441 24.0695 12.6249 22.3667 12.4746 20.2191C12.4712 20.1708 12.4634 19.7282 12.4521 19.6827V16.2369C13.6218 17.6223 15.0452 18.7716 16.6459 19.6233V19.6261ZM12.451 24.327C13.402 25.4715 14.5381 26.4486 15.8122 27.2174C15.7527 28.8511 15.6932 31.7416 17.8998 32.5231C18.3457 32.685 18.8284 32.7167 19.2917 32.6145C19.6666 32.5238 20.0165 32.3505 20.3158 32.1073C20.6152 31.864 20.8564 31.557 21.0219 31.2086C21.223 30.7384 21.3141 30.2286 21.2884 29.7179C24.4905 30.7432 27.807 31.3692 31.1626 31.5817C31.1407 31.8661 31.1138 32.0434 31.1132 32.049C31.1087 32.0758 31.1055 32.1027 31.1037 32.1298C30.9811 33.699 31.0314 35.277 31.2535 36.8352C20.8054 36.0873 12.8095 31.9997 12.4735 27.1405C12.47 27.0929 12.4625 27.0456 12.451 26.9992V24.327ZM21.5212 28.0236C21.6394 27.6009 21.7908 27.1882 21.974 26.7893L22.0682 26.5879C22.1687 26.3747 22.2685 26.1604 22.3532 25.9433C24.0259 26.7441 25.9001 27.0253 27.7341 26.7506C28.3709 26.6498 29.0231 26.7673 29.5847 27.0841C30.1462 27.4008 30.5841 27.8983 30.8271 28.4954C30.9854 28.9472 31.0894 29.4161 31.1368 29.8924C27.8653 29.6783 24.6342 29.0494 21.5212 28.0208V28.0236ZM32.7767 32.2762C32.982 30.815 32.8558 29.3263 32.4075 27.9204C32.0322 26.9639 31.3439 26.1629 30.4548 25.6479C29.5657 25.133 28.5283 24.9345 27.5119 25.0849C26.0142 25.3148 24.4819 25.091 23.1123 24.4425C22.8983 24.3329 22.6633 24.2703 22.4231 24.2592C22.1828 24.248 21.943 24.2884 21.7197 24.3777C21.4964 24.467 21.2949 24.6032 21.1287 24.7769C20.9624 24.9507 20.8353 25.1581 20.756 25.3851C20.6946 25.5505 20.6243 25.7125 20.5456 25.8704L20.4412 26.0948C19.9996 27.0368 19.7242 28.0481 19.6272 29.084C19.6109 29.273 19.6087 29.4655 19.607 29.659C19.6283 29.9356 19.5941 30.2137 19.5066 30.477C19.4504 30.5971 19.3688 30.7037 19.2675 30.7893C19.1662 30.8749 19.0476 30.9376 18.9197 30.973C18.7672 31.0047 18.6087 30.9922 18.463 30.9371C17.3741 30.5511 17.4532 28.3535 17.4986 27.1731L17.5048 26.9992C17.5755 25.3865 17.7475 23.7799 18.0198 22.1889C18.0759 21.8377 18.1197 21.4859 18.1539 21.1313C18.4344 18.2033 19.2423 16.0214 20.1686 15.7011C20.1995 15.6902 20.2299 15.6776 20.2595 15.6635C20.3004 15.6439 24.5143 13.6628 34.2892 13.9243C38.2355 14.0758 44.8529 15.0968 45.8089 17.1934C46.0724 17.8058 46.1962 18.4692 46.1713 19.1354C46.1464 19.8017 45.9733 20.4539 45.6647 21.0449C45.4389 21.498 45.1127 21.8936 44.711 22.2018C44.3158 22.5176 43.9771 22.8984 43.7095 23.3278C43.0598 24.4519 42.2773 25.4939 41.379 26.4314C39.7756 28.119 40.0567 31.1171 40.575 33.3321C40.8634 34.4824 41.3796 35.5632 42.0932 36.5104C42.3793 36.7887 42.5947 37.1315 42.7214 37.5101C42.848 37.8887 42.8823 38.2921 42.8213 38.6866C42.7603 39.0812 42.6058 39.4554 42.3707 39.778C42.1356 40.1007 41.8267 40.3624 41.4699 40.5414C40.6553 41.0547 37.3491 41.3268 34.9681 40.354C34.934 40.3387 34.8985 40.3269 34.862 40.3187C34.8357 40.3136 32.3228 39.4614 32.7767 32.2734V32.2762ZM56.3272 9.68736L37.3586 9.09042L40.5229 2.05619C48.3633 3.05707 54.5532 6.0816 56.3272 9.68456V9.68736ZM34.6517 1.6831C34.7639 1.6831 34.8716 1.68871 34.981 1.68927L31.7276 8.91538L13.8396 8.34874C17.0666 4.42206 25.4271 1.6831 34.6517 1.6831ZM34.6517 45.3169C16.4742 45.3169 1.68478 38.4016 1.68478 29.902C1.68478 26.0162 4.97637 22.2102 10.7679 19.3416V27.1961C10.7676 27.2855 10.7826 27.3743 10.8122 27.4587C11.4041 33.2345 20.0693 37.8378 31.6428 38.5424C32.4844 41.1922 33.9492 41.8076 34.3801 41.9327C35.7698 42.4513 37.2432 42.7094 38.7264 42.6941C40.2592 42.6941 41.627 42.4315 42.3316 41.9872C43.3704 41.3668 44.1259 40.3653 44.4372 39.196C44.5478 38.6743 44.5461 38.135 44.4321 37.6139C44.8989 37.5111 45.3597 37.4013 45.8145 37.2846C45.9924 38.1478 46.4356 38.9338 47.0822 39.5327C47.7288 40.1316 48.5464 40.5134 49.4207 40.6247C50.295 40.736 51.1822 40.5712 51.9583 40.1534C52.7343 39.7355 53.3603 39.0856 53.7487 38.2944C54.8422 38.728 56.0597 38.7293 57.1542 38.2982C58.2487 37.867 59.1382 37.0357 59.6423 35.9728C60.1463 34.9099 60.2272 33.6951 59.8685 32.5748C59.5098 31.4545 58.7384 30.5125 57.7107 29.9401C58.1346 29.1683 58.4007 28.3198 58.4933 27.4441C58.5175 27.3646 58.5298 27.282 58.5298 27.1989V19.3444C64.3208 22.213 67.6124 26.0207 67.6124 29.9048C67.6124 38.4016 52.8263 45.3169 34.6517 45.3169Z" fill="#30384C"/>
<path d="M37.5903 23.1808C38.0427 23.1808 38.4095 22.8141 38.4095 22.3617C38.4095 21.9093 38.0427 21.5426 37.5903 21.5426C37.138 21.5426 36.7712 21.9093 36.7712 22.3617C36.7712 22.8141 37.138 23.1808 37.5903 23.1808Z" fill="black"/>
<path d="M31.3204 23.5079C31.3002 23.5079 31.2806 23.5079 31.2609 23.5079C28.2228 23.3155 25.2146 22.7931 22.2894 21.9499C22.1828 21.9192 22.0833 21.8676 21.9967 21.7983C21.9101 21.7289 21.838 21.6431 21.7847 21.5458C21.7314 21.4485 21.6978 21.3416 21.686 21.2313C21.6741 21.1209 21.6842 21.0093 21.7156 20.9029C21.7471 20.7965 21.7993 20.6973 21.8692 20.6112C21.9391 20.525 22.0254 20.4535 22.123 20.4008C22.2207 20.3481 22.3278 20.3152 22.4382 20.3041C22.5486 20.2929 22.6601 20.3037 22.7663 20.3358C25.5739 21.1444 28.4612 21.6452 31.3771 21.8293C31.6003 21.8367 31.8114 21.9326 31.9639 22.0956C32.1165 22.2587 32.198 22.4757 32.1906 22.6989C32.1831 22.9221 32.0873 23.1332 31.9242 23.2858C31.7612 23.4383 31.5442 23.5198 31.321 23.5124L31.3204 23.5079Z" fill="#222222"/>
<path d="M58.5298 17.4818V11.8103C58.5287 11.3474 58.4755 10.8862 58.371 10.4352C58.371 10.4246 58.3677 10.4145 58.3654 10.4044C58.3632 10.3943 58.3615 10.3808 58.3592 10.369C56.8467 2.08761 40.6098 0 34.6517 0C23.7626 0 14.2631 3.59734 11.5517 8.75212C11.0434 9.69285 10.7737 10.7439 10.7662 11.8131V17.4818C3.82344 20.715 0 25.1119 0 29.902C0 39.49 15.2203 47 34.65 47C54.0797 47 69.2938 39.49 69.2938 29.902C69.2955 25.1096 65.472 20.715 58.5298 17.4818ZM52.5037 36.429C52.5037 36.9329 52.3543 37.4255 52.0743 37.8445C51.7944 38.2634 51.3965 38.59 50.9309 38.7828C50.4653 38.9756 49.9531 39.026 49.4589 38.9277C48.9646 38.8293 48.5107 38.5866 48.1544 38.2303C47.7981 37.8739 47.5555 37.4199 47.4573 36.9257C47.3591 36.4315 47.4096 35.9192 47.6025 35.4537C47.7954 34.9882 48.1221 34.5903 48.5411 34.3104C48.9601 34.0306 49.4527 33.8812 49.9566 33.8814C50.632 33.8822 51.2794 34.151 51.7569 34.6286C52.2344 35.1062 52.503 35.7537 52.5037 36.429ZM52.6159 33.1442C52.7891 32.5659 53.1352 32.0545 53.6077 31.6789C54.0803 31.3034 54.6565 31.0815 55.2589 31.0434C55.8614 31.0052 56.461 31.1525 56.9772 31.4655C57.4933 31.7785 57.9012 32.242 58.1459 32.7938C58.3906 33.3456 58.4604 33.9592 58.3459 34.5518C58.2313 35.1445 57.938 35.6878 57.5053 36.1087C57.0726 36.5296 56.5213 36.8078 55.9257 36.9059C55.3301 37.004 54.7187 36.9172 54.1739 36.6573C54.1779 36.5811 54.1852 36.5059 54.1852 36.429C54.1851 35.7991 54.0442 35.1772 53.7726 34.6088C53.5011 34.0405 53.1059 33.54 52.6159 33.1442ZM56.8276 27.1411C56.7598 27.9411 56.5021 28.7133 56.0758 29.3937C55.0324 29.2419 53.9686 29.4541 53.0632 29.9943C52.1578 30.5346 51.4659 31.3701 51.104 32.3604C50.5475 32.2011 49.9641 32.1582 49.3903 32.2342C48.8165 32.3103 48.2645 32.5036 47.7687 32.8023C47.2729 33.101 46.8439 33.4986 46.5085 33.9704C46.173 34.4421 45.9383 34.9779 45.819 35.5443C45.1563 35.7242 44.4796 35.8869 43.7892 36.0324C43.6865 35.864 43.5755 35.6924 43.4526 35.5218C42.8717 34.7564 42.4501 33.8823 42.2127 32.9512C42.0723 32.3638 41.9685 31.7684 41.9019 31.1682C48.8587 30.0921 54.2592 27.5316 56.8456 24.2894V27.0216C56.8375 27.0612 56.8322 27.1013 56.8299 27.1417L56.8276 27.1411ZM12.451 11.8103C12.4562 11.1875 12.5843 10.5719 12.828 9.99873L32.2398 10.6159H32.2667C32.4288 10.6159 32.5875 10.5691 32.7236 10.4811C32.8598 10.3932 32.9676 10.2677 33.0342 10.1199L36.8071 1.74313C36.9957 1.75099 37.1836 1.76108 37.3721 1.77174C37.73 1.79138 38.0874 1.8127 38.4437 1.84131C38.5503 1.84973 38.6563 1.86207 38.7629 1.87161L35.3081 9.5443C35.2514 9.67041 35.2267 9.80854 35.2361 9.94648C35.2455 10.0844 35.2888 10.2179 35.362 10.3351C35.4353 10.4524 35.5363 10.5498 35.6562 10.6187C35.776 10.6876 35.911 10.726 36.0492 10.7303L56.8237 11.3839C56.8372 11.5253 56.8489 11.6644 56.8489 11.8109V13.2297L38.7377 12.6614C37.2801 12.4477 35.8126 12.308 34.3408 12.2429C32.2162 12.1868 30.3575 12.235 28.7187 12.3439L12.4488 11.8339L12.451 11.8103ZM47.3383 16.4961C46.8721 15.6331 46.1414 14.9425 45.2535 14.5257L55.7594 14.8769C54.3226 16.8792 51.5191 18.66 47.7737 19.9374C47.9856 18.7728 47.8336 17.5712 47.3383 16.4961ZM47.1038 21.9184C51.6016 20.5759 54.9689 18.5977 56.8467 16.2341V19.1514C56.8383 19.1896 56.8327 20.1753 56.8299 20.2174C56.5432 24.3438 50.4386 28.0937 41.8856 29.4694C41.9121 28.7825 42.1623 28.1231 42.5981 27.5916C43.586 26.5607 44.4466 25.4149 45.1615 24.1789C45.3401 23.9071 45.5625 23.6667 45.8196 23.4675C46.3474 23.0426 46.7841 22.5158 47.1038 21.9184ZM17.0111 17.8919C14.8623 16.5965 13.4076 15.0867 12.791 13.5282L20.5579 13.7526C20.0205 13.9327 19.6883 14.0746 19.5705 14.1285C18.2369 14.6172 17.4627 16.2144 17.0111 17.8919ZM16.6459 19.6261C16.5696 20.1097 16.5146 20.5692 16.4775 20.9725C16.4469 21.2912 16.4065 21.6091 16.3564 21.9263C16.1572 23.1718 16.0169 24.2669 15.9272 25.2734C14.2441 24.0695 12.6249 22.3667 12.4746 20.2191C12.4712 20.1708 12.4634 19.7282 12.4521 19.6827V16.2369C13.6218 17.6223 15.0452 18.7716 16.6459 19.6233V19.6261ZM12.451 24.327C13.402 25.4715 14.5381 26.4486 15.8122 27.2174C15.7527 28.8511 15.6932 31.7416 17.8998 32.5231C18.3457 32.685 18.8284 32.7167 19.2917 32.6145C19.6666 32.5238 20.0165 32.3505 20.3158 32.1073C20.6152 31.864 20.8564 31.557 21.0219 31.2086C21.223 30.7384 21.3141 30.2286 21.2884 29.7179C24.4905 30.7432 27.807 31.3692 31.1626 31.5817C31.1407 31.8661 31.1138 32.0434 31.1132 32.049C31.1087 32.0758 31.1055 32.1027 31.1037 32.1298C30.9811 33.699 31.0314 35.277 31.2535 36.8352C20.8054 36.0873 12.8095 31.9997 12.4735 27.1405C12.47 27.0929 12.4625 27.0456 12.451 26.9992V24.327ZM21.5212 28.0236C21.6394 27.6009 21.7908 27.1882 21.974 26.7893L22.0682 26.5879C22.1687 26.3747 22.2685 26.1604 22.3532 25.9433C24.0259 26.7441 25.9001 27.0253 27.7341 26.7506C28.3709 26.6498 29.0231 26.7673 29.5847 27.0841C30.1462 27.4008 30.5841 27.8983 30.8271 28.4954C30.9854 28.9472 31.0894 29.4161 31.1368 29.8924C27.8653 29.6783 24.6342 29.0494 21.5212 28.0208V28.0236ZM32.7767 32.2762C32.982 30.815 32.8558 29.3263 32.4075 27.9204C32.0322 26.9639 31.3439 26.1629 30.4548 25.6479C29.5657 25.133 28.5283 24.9345 27.5119 25.0849C26.0142 25.3148 24.4819 25.091 23.1123 24.4425C22.8983 24.3329 22.6633 24.2703 22.4231 24.2592C22.1828 24.248 21.943 24.2884 21.7197 24.3777C21.4964 24.467 21.2949 24.6032 21.1287 24.7769C20.9624 24.9507 20.8353 25.1581 20.756 25.3851C20.6946 25.5505 20.6243 25.7125 20.5456 25.8704L20.4412 26.0948C19.9996 27.0368 19.7242 28.0481 19.6272 29.084C19.6109 29.273 19.6087 29.4655 19.607 29.659C19.6283 29.9356 19.5941 30.2137 19.5066 30.477C19.4504 30.5971 19.3688 30.7037 19.2675 30.7893C19.1662 30.8749 19.0476 30.9376 18.9197 30.973C18.7672 31.0047 18.6087 30.9922 18.463 30.9371C17.3741 30.5511 17.4532 28.3535 17.4986 27.1731L17.5048 26.9992C17.5755 25.3865 17.7475 23.7799 18.0198 22.1889C18.0759 21.8377 18.1197 21.4859 18.1539 21.1313C18.4344 18.2033 19.2423 16.0214 20.1686 15.7011C20.1995 15.6902 20.2299 15.6776 20.2595 15.6635C20.3004 15.6439 24.5143 13.6628 34.2892 13.9243C38.2355 14.0758 44.8529 15.0968 45.8089 17.1934C46.0724 17.8058 46.1962 18.4692 46.1713 19.1354C46.1464 19.8017 45.9733 20.4539 45.6647 21.0449C45.4389 21.498 45.1127 21.8936 44.711 22.2018C44.3158 22.5176 43.9771 22.8984 43.7095 23.3278C43.0598 24.4519 42.2773 25.4939 41.379 26.4314C39.7756 28.119 40.0567 31.1171 40.575 33.3321C40.8634 34.4824 41.3796 35.5632 42.0932 36.5104C42.3793 36.7887 42.5947 37.1315 42.7214 37.5101C42.848 37.8887 42.8823 38.2921 42.8213 38.6866C42.7603 39.0812 42.6058 39.4554 42.3707 39.778C42.1356 40.1007 41.8267 40.3624 41.4699 40.5414C40.6553 41.0547 37.3491 41.3268 34.9681 40.354C34.934 40.3387 34.8985 40.3269 34.862 40.3187C34.8357 40.3136 32.3228 39.4614 32.7767 32.2734V32.2762ZM56.3272 9.68736L37.3586 9.09042L40.5229 2.05619C48.3633 3.05707 54.5532 6.0816 56.3272 9.68456V9.68736ZM34.6517 1.6831C34.7639 1.6831 34.8716 1.68871 34.981 1.68927L31.7276 8.91538L13.8396 8.34874C17.0666 4.42206 25.4271 1.6831 34.6517 1.6831ZM34.6517 45.3169C16.4742 45.3169 1.68478 38.4016 1.68478 29.902C1.68478 26.0162 4.97637 22.2102 10.7679 19.3416V27.1961C10.7676 27.2855 10.7826 27.3743 10.8122 27.4587C11.4041 33.2345 20.0693 37.8378 31.6428 38.5424C32.4844 41.1922 33.9492 41.8076 34.3801 41.9327C35.7698 42.4513 37.2432 42.7094 38.7264 42.6941C40.2592 42.6941 41.627 42.4315 42.3316 41.9872C43.3704 41.3668 44.1259 40.3653 44.4372 39.196C44.5478 38.6743 44.5461 38.135 44.4321 37.6139C44.8989 37.5111 45.3597 37.4013 45.8145 37.2846C45.9924 38.1478 46.4356 38.9338 47.0822 39.5327C47.7288 40.1316 48.5464 40.5134 49.4207 40.6247C50.295 40.736 51.1822 40.5712 51.9583 40.1534C52.7343 39.7355 53.3603 39.0856 53.7487 38.2944C54.8422 38.728 56.0597 38.7293 57.1542 38.2982C58.2487 37.867 59.1382 37.0357 59.6423 35.9728C60.1463 34.9099 60.2272 33.6951 59.8685 32.5748C59.5098 31.4545 58.7384 30.5125 57.7107 29.9401C58.1346 29.1683 58.4007 28.3198 58.4933 27.4441C58.5175 27.3646 58.5298 27.282 58.5298 27.1989V19.3444C64.3208 22.213 67.6124 26.0207 67.6124 29.9048C67.6124 38.4016 52.8263 45.3169 34.6517 45.3169Z" fill="black"/>
</svg>
