<svg width="12" height="12" viewBox="0 0 12 12" fill="none" xmlns="http://www.w3.org/2000/svg">
<path d="M5.14453 0.142822C4.75025 0.142822 4.43025 0.462108 4.43025 0.857108V4.42854H3.71596V0.857108C3.71596 0.462108 3.39596 0.142822 3.00167 0.142822C2.60739 0.142822 2.28739 0.462108 2.28739 0.857108V4.42854H1.5731V0.857108C1.5731 0.462108 1.2531 0.142822 0.858817 0.142822C0.464531 0.142822 0.144531 0.462108 0.144531 0.857108V5.14282C0.144531 5.53782 0.464531 5.85711 0.858817 5.85711H2.28739V10.8571C2.28739 11.2521 2.60739 11.5714 3.00167 11.5714C3.39596 11.5714 3.71596 11.2521 3.71596 10.8571V5.85711H5.14453C5.53882 5.85711 5.85882 5.53782 5.85882 5.14282V0.857108C5.85882 0.462108 5.53882 0.142822 5.14453 0.142822ZM9.43025 0.142822C8.24667 0.142822 7.28739 1.10211 7.28739 2.28568C7.28739 3.21782 7.88525 4.00211 8.71596 4.29711V10.8571C8.71596 11.2521 9.03596 11.5714 9.43025 11.5714C9.82453 11.5714 10.1445 11.2521 10.1445 10.8571V4.29711C10.9752 4.00211 11.5731 3.21711 11.5731 2.28568C11.5731 1.10211 10.6138 0.142822 9.43025 0.142822Z" fill="#FEFEFD"/>
</svg>
