<svg width="54" height="47" viewBox="0 0 54 47" fill="none" xmlns="http://www.w3.org/2000/svg">
<path d="M52.2408 19.1482H1.75929C1.52845 19.1482 1.30707 19.2399 1.14384 19.4031C0.980615 19.5663 0.888916 19.7877 0.888916 20.0186V21.1413C0.888916 34.5799 7.52984 43.066 18.2963 43.5186V45.5639C18.3009 45.9464 18.4561 46.3117 18.7282 46.5805C19.0002 46.8493 19.3673 47.0001 19.7498 47H34.2502C34.6357 47 35.0054 46.8469 35.278 46.5743C35.5506 46.3017 35.7037 45.932 35.7037 45.5465V43.5186C46.4702 43.0834 53.1111 34.5973 53.1111 21.1587V20.0186C53.1111 19.7877 53.0194 19.5663 52.8562 19.4031C52.693 19.2399 52.4716 19.1482 52.2408 19.1482ZM51.3704 21.1413C51.3704 34.0576 45.1908 41.7778 34.8334 41.7778C34.6025 41.7778 34.3811 41.8695 34.2179 42.0327C34.0547 42.196 33.963 42.4174 33.963 42.6482V45.2593H20.0371V42.6482C20.0371 42.4174 19.9454 42.196 19.7821 42.0327C19.6189 41.8695 19.3975 41.7778 19.1667 41.7778C9.71447 41.7778 3.75243 35.3284 2.78632 24.3704H43.5371V22.6297H2.67318C2.67318 22.1336 2.67318 21.6462 2.67318 21.1413V20.8889H51.3704V21.1413Z" fill="black"/>
<path d="M49.6297 22.6296H46.1482V24.3704H49.6297V22.6296Z" fill="black"/>
<path d="M14.8152 4.35185V6.77148C14.8039 8.04137 15.2417 9.2744 16.0511 10.253C16.5228 10.8461 16.8057 11.5672 16.8631 12.3229C16.9205 13.0785 16.7498 13.8341 16.3731 14.4917L14.937 16.9722L16.434 17.8426L17.8789 15.362C18.4445 14.4 18.7041 13.2887 18.6233 12.1756C18.5424 11.0625 18.125 10.0004 17.4263 9.13018C16.8677 8.47082 16.5595 7.63562 16.5559 6.77148V4.35185H14.8152ZM35.3907 4.35185V6.77148C35.377 8.04028 35.8116 9.27319 36.6179 10.253C37.0885 10.8481 37.3713 11.5699 37.4302 12.3263C37.4891 13.0827 37.3215 13.8396 36.9487 14.5004L35.5039 16.9722L37.0096 17.8426L38.4544 15.362C39.0128 14.3949 39.2636 13.2806 39.1735 12.1674C39.0833 11.0542 38.6564 9.99488 37.9496 9.13018C37.4092 8.46396 37.1197 7.62925 37.1314 6.77148V4.35185H35.3907ZM25.1029 0V3.22907C25.0774 4.75902 25.4782 6.26588 26.2605 7.58093C26.783 8.5155 27.0866 9.55645 27.1484 10.6254C27.2102 11.6943 27.0286 12.7633 26.6174 13.7519L25.1726 17.0593L26.7653 17.7556L28.2102 14.4481C28.7433 13.1948 28.9776 11.8346 28.8945 10.475C28.8114 9.11551 28.4132 7.79395 27.7314 6.61481C27.1361 5.57484 26.8352 4.39233 26.8611 3.19426V0H25.1029Z" fill="black"/>
</svg>
