<svg width="15" height="16" viewBox="0 0 15 16" fill="none" xmlns="http://www.w3.org/2000/svg">
<path d="M10.5308 10.8919C10.5053 10.9114 10.4806 10.9331 10.4566 10.9571C10.4326 10.9811 10.4116 11.0051 10.3913 11.0314C9.44781 11.9411 8.16455 12.4999 6.75004 12.4999C5.30028 12.4999 3.98852 11.9134 3.03752 10.9624C2.08651 10.0114 1.50001 8.69965 1.50001 7.24992C1.50001 5.80018 2.08651 4.48845 3.03752 3.53746C3.98852 2.58647 5.30028 1.99998 6.75004 1.99998C8.1998 1.99998 9.51156 2.58647 10.4626 3.53746C11.4136 4.48845 12.0001 5.80018 12.0001 7.24992C12.0001 8.6644 11.4413 9.94763 10.5308 10.8919ZM14.7803 14.2196L12.0241 11.4634C12.9473 10.3084 13.5001 8.84365 13.5001 7.24992C13.5001 5.38619 12.7441 3.69796 11.5231 2.47698C10.3021 1.25599 8.6138 0.5 6.75004 0.5C4.88628 0.5 3.19802 1.25599 1.97701 2.47698C0.756005 3.69796 0 5.38619 0 7.24992C0 9.11364 0.756005 10.8019 1.97701 12.0229C3.19802 13.2438 4.88628 13.9998 6.75004 13.9998C8.3438 13.9998 9.80856 13.4471 10.9636 12.5238L13.7198 15.2801C14.0131 15.5733 14.4878 15.5733 14.7803 15.2801C15.0728 14.9868 15.0736 14.5121 14.7803 14.2196Z" fill="black"/>
</svg>
